<svg xmlns="http://www.w3.org/2000/svg" width="195" height="130" fill="none"><path fill="#fff" d="M106.03 48.98c.24 3.36.36 8.76.36 16.2 0 7.32-.12 12.6-.36 15.84-.84 14.28-5.58 25.98-14.22 35.1-8.52 9.12-21.3 13.68-38.34 13.68-17.04 0-29.88-4.56-38.52-13.68C6.43 107 1.75 95.3.9 81.02.67 74.54.55 69.26.55 65.18s.12-9.48.36-16.2C1.75 34.7 6.43 23 14.95 13.88 23.59 4.76 36.43.2 53.47.2 70.5.2 83.29 4.76 91.8 13.88c8.64 9.12 13.38 20.82 14.22 35.1Zm-33.3.9c-.36-6.6-1.98-11.7-4.86-15.3-2.88-3.72-7.68-5.58-14.4-5.58-6.72 0-11.52 1.86-14.4 5.58-2.88 3.6-4.5 8.7-4.86 15.3-.24 6.48-.36 11.46-.36 14.94 0 3.24.12 8.34.36 15.3.24 6.6 1.8 11.76 4.68 15.48 3 3.6 7.86 5.4 14.58 5.4s11.52-1.8 14.4-5.4c3-3.72 4.62-8.88 4.86-15.48.24-3.48.36-8.58.36-15.3 0-6.72-.12-11.7-.36-14.94Zm46.52-7.38c-.6-.72-.9-1.68-.9-2.88 0-1.68.66-3 1.98-3.96l38.7-29.7c.24-.24.84-.72 1.8-1.44a21.85 21.85 0 0 1 3.24-1.8 7.92 7.92 0 0 1 3.24-.72h21.96c1.32 0 2.46.48 3.42 1.44s1.44 2.1 1.44 3.42v116.28c0 1.32-.48 2.46-1.44 3.42a4.67 4.67 0 0 1-3.42 1.44H165.7a4.67 4.67 0 0 1-3.42-1.44 4.67 4.67 0 0 1-1.44-3.42V44.48l-21.42 16.2a5.01 5.01 0 0 1-3.06 1.08 4.46 4.46 0 0 1-3.78-1.98L119.25 42.5Z"/></svg>